HIERARCHY
ROOT Hips
{
	OFFSET -3.958830 18.904000 13.208200
	CHANNELS 6 Xposition Yposition Zposition Zrotation Yrotation Xrotation 
	JOINT LHipJoint
	{
		OFFSET 0.000000 0.000000 0.000000
		CHANNELS 3 Zrotation Yrotation Xrotation
		JOINT LeftUpLeg
		{
			OFFSET 1.800000 -1.400000 0.085000
			CHANNELS 3 Zrotation Yrotation Xrotation
			JOINT LeftLeg
			{
				OFFSET 2.215000 -6.000000 0.000000
				CHANNELS 3 Zrotation Yrotation Xrotation
				JOINT LeftFoot
				{
					OFFSET 2.500000 -6.900000 0.000000
					CHANNELS 3 Zrotation Yrotation Xrotation
					JOINT LeftToeBase
					{
						OFFSET 0.200000 -0.500000 1.950000
						CHANNELS 3 Zrotation Yrotation Xrotation
						End Site
						{
							OFFSET 0.000000 0.000000 0.000000
						}
					}
				}
			}
		}
	}
	JOINT RHipJoint
	{
		OFFSET 0.000000 0.000000 0.000000
		CHANNELS 3 Zrotation Yrotation Xrotation
		JOINT RightUpLeg
		{
			OFFSET -1.800000 -1.400000 0.085000
			CHANNELS 3 Zrotation Yrotation Xrotation
			JOINT RightLeg
			{
				OFFSET -2.215000 -6.000000 0.000000
				CHANNELS 3 Zrotation Yrotation Xrotation
				JOINT RightFoot
				{
					OFFSET -2.500000 -6.900000 0.000000
					CHANNELS 3 Zrotation Yrotation Xrotation
					JOINT RightToeBase
					{
						OFFSET -0.200000 -0.500000 1.950000
						CHANNELS 3 Zrotation Yrotation Xrotation
						End Site
						{
							OFFSET 0.000000 0.000000 0.000000
						}
					}
				}
			}
		}
	}
	JOINT LowerBack
	{
		OFFSET 0.000000 0.000000 0.000000
		CHANNELS 3 Zrotation Yrotation Xrotation
		JOINT Spine
		{
			OFFSET -0.087000 1.940000 -0.288900
			CHANNELS 3 Zrotation Yrotation Xrotation
			JOINT Spine1
			{
				OFFSET 0.000000 1.950000 0.060000
				CHANNELS 3 Zrotation Yrotation Xrotation
				JOINT Neck
				{
					OFFSET 0.000000 0.000000 0.000000
					CHANNELS 3 Zrotation Yrotation Xrotation
					JOINT Neck1
					{
						OFFSET 0.000000 1.600000 0.340000
						CHANNELS 3 Zrotation Yrotation Xrotation
						JOINT Head
						{
							OFFSET 0.000000 1.667000 -0.240000
							CHANNELS 3 Zrotation Yrotation Xrotation
							End Site
							{
								OFFSET 0.000000 0.000000 0.000000
							}
						}
					}
				}
				JOINT LeftShoulder
				{
					OFFSET 0.000000 0.000000 0.000000
					CHANNELS 3 Zrotation Yrotation Xrotation
					JOINT LeftArm
					{
						OFFSET 2.700000 1.550000 -0.730000
						CHANNELS 3 Zrotation Yrotation Xrotation
						JOINT LeftForeArm
						{
							OFFSET 5.450000 0.000000 0.000000
							CHANNELS 3 Zrotation Yrotation Xrotation
							JOINT LeftHand
							{
								OFFSET 3.450000 0.000000 0.000000
								CHANNELS 3 Zrotation Yrotation Xrotation
								JOINT LeftHandIndex1
								{
									OFFSET 0.750000 0.000000 0.000000
									CHANNELS 3 Zrotation Yrotation Xrotation
									End Site
									{
										OFFSET 0.000000 0.000000 0.000000
									}
								}
							}
						}
					}
				}
				JOINT RightShoulder
				{
					OFFSET 0.000000 0.000000 0.000000
					CHANNELS 3 Zrotation Yrotation Xrotation
					JOINT RightArm
					{
						OFFSET -2.700000 1.550000 -0.730000
						CHANNELS 3 Zrotation Yrotation Xrotation
						JOINT RightForeArm
						{
							OFFSET -5.450000 0.000000 0.000000
							CHANNELS 3 Zrotation Yrotation Xrotation
							JOINT RightHand
							{
								OFFSET -3.450000 0.000000 0.000000
								CHANNELS 3 Zrotation Yrotation Xrotation
								JOINT RightHandIndex1
								{
									OFFSET -0.750000 0.000000 0.000000
									CHANNELS 3 Zrotation Yrotation Xrotation
									End Site
									{
										OFFSET 0.000000 0.000000 0.000000
									}
								}
							}
						}
					}
				}
			}
		}
	}
}
MOTION
Frames: 7
Frame Time: 0.016667
-0.697190 15.741780 -2.846860 -9.372744 -24.516066 -1.333223 -16.286524 12.548477 5.966506 24.884546 -1.197087 -49.853883 0.049306 14.945309 55.187711 0.864792 10.405787 0.573082 0.282260 0.233290 0.437520 17.629685 -7.947330 2.297582 -17.685163 6.476696 -22.766277 17.337519 -14.860170 40.912384 -0.939482 -7.118784 1.689826 0.033790 -0.407230 0.023230 -1.156137 -6.476711 -9.490448 -0.195926 2.905108 41.858795 15.193744 7.654429 -9.452362 0.147226 -6.351533 -5.696206 -17.607823 13.440059 48.478720 -7.403120 12.341000 -11.111080 -29.475686 5.844587 1.251699 -38.972579 21.693526 -11.130060 16.032258 -23.875306 -2.591419 -3.399222 2.886096 0.408920 -0.272520 0.361890 -0.088280 30.844740 5.020936 2.784148 29.155370 -5.643202 -16.877483 -49.232709 45.943040 -17.210690 2.564957 -1.337716 0.051580 -0.029500 -0.135320 -0.212030 
-0.656630 15.718070 -2.822030 -9.773304 -24.619247 -0.890442 -16.258458 12.593292 5.884998 24.318233 -1.334569 -49.655398 0.684344 14.248780 54.334633 0.813995 10.152683 0.651840 0.268780 0.215040 0.434660 17.637537 -7.984213 2.363086 -17.893591 6.510167 -23.123929 17.549462 -14.943674 40.810772 -0.931188 -7.133423 1.682771 0.025170 -0.402370 0.022460 -1.198395 -6.426290 -9.479421 0.498895 2.598508 41.374435 14.991144 7.442287 -9.228720 0.304105 -6.105015 -5.910576 -16.945330 13.224177 48.752369 -7.415530 12.492860 -10.495080 -29.172520 5.536346 1.409818 -39.289933 21.610450 -10.986630 14.817879 -22.410687 -2.241446 -3.419222 2.876398 0.403560 -0.264380 0.353610 -0.094370 30.226842 5.074800 2.744163 29.663261 -5.683741 -16.905417 -48.083367 45.988491 -16.765911 2.535193 -1.324300 0.046610 -0.034550 -0.130160 -0.215510 
-0.566260 15.693200 -2.775040 -10.133282 -24.844630 -0.397002 -16.208801 12.662769 5.789451 23.135849 -1.828000 -49.418358 1.231097 13.448035 53.457951 0.762634 9.859174 0.748301 0.257260 0.201110 0.432620 17.650993 -8.066942 2.423702 -18.523866 6.381115 -23.431816 17.710085 -14.845784 40.127030 -0.897169 -7.054013 1.704138 0.017170 -0.394850 0.024860 -1.270975 -6.358737 -9.443141 1.591738 2.118090 40.975433 14.451347 7.131419 -9.110074 0.583550 -5.844710 -6.064511 -16.107570 13.001128 48.569126 -7.540550 12.815940 -10.169480 -29.117076 5.211953 1.439468 -39.320850 21.366776 -10.623318 13.024355 -20.123866 -1.768915 -3.449910 2.866814 0.395590 -0.253140 0.345820 -0.098430 29.576597 5.049368 2.688490 30.123420 -5.766074 -16.873703 -45.835359 46.129729 -15.887299 2.496343 -1.314150 0.043990 -0.039390 -0.126050 -0.217620 
-0.448770 15.680880 -2.717140 -10.188389 -25.333459 -0.090555 -16.167489 12.701667 5.770962 21.908530 -2.449134 -49.518218 1.413826 13.113330 53.558226 0.763233 9.784719 0.781841 0.242820 0.185320 0.420030 17.663775 -8.166833 2.414175 -19.264702 6.140552 -23.634286 17.077568 -14.357533 39.382269 -0.829550 -6.870472 1.758896 0.009280 -0.382420 0.028710 -1.330861 -6.281099 -9.406327 2.522558 1.763252 40.660701 13.903385 6.925660 -9.194128 0.839329 -5.744834 -6.201348 -15.655416 12.929198 48.204060 -7.590510 13.071100 -9.557940 -29.449892 4.860251 1.439641 -39.272420 21.276380 -10.154909 11.391778 -17.232121 -1.327397 -3.485214 2.862294 0.382870 -0.239120 0.334160 -0.098080 29.383869 5.173238 2.743243 30.123044 -6.078595 -16.847801 -44.138138 46.417574 -15.289006 2.475516 -1.319704 0.042040 -0.046990 -0.120770 -0.215130 
-0.314720 15.683210 -2.657930 -9.840072 -25.894321 0.141430 -16.120729 12.702767 5.790101 20.591326 -3.233531 -49.619427 0.956904 13.182672 53.921983 0.782449 9.826534 0.781813 0.232740 0.174680 0.411400 17.681484 -8.292587 2.377465 -20.288385 5.748781 -23.723874 16.317960 -13.654769 38.056097 -0.736218 -6.588291 1.844240 0.008630 -0.367250 0.031570 -1.406124 -6.135660 -9.363750 3.205686 1.425359 40.281379 13.128832 6.593734 -9.324759 1.051167 -5.596461 -6.131832 -15.072113 12.728624 47.803932 -7.676560 13.216430 -9.042300 -30.002761 4.673137 1.306109 -38.825427 21.083358 -9.551610 10.000230 -14.283223 -0.977246 -3.526203 2.856421 0.367450 -0.221640 0.319870 -0.096950 29.452571 5.071074 2.592185 29.963357 -5.982871 -16.738205 -42.957126 46.816847 -14.931777 2.450828 -1.323593 0.037510 -0.049830 -0.116800 -0.213440 
-0.167430 15.702470 -2.596480 -9.067325 -26.467543 0.308681 -16.071461 12.697979 5.850469 19.150975 -4.174397 -49.646886 -0.383763 13.653247 54.059181 0.816477 9.923033 0.769109 0.215100 0.158940 0.393790 17.699145 -8.455809 2.284212 -21.321941 5.207360 -23.685008 14.851223 -12.508034 36.176504 -0.601223 -6.140127 1.988852 0.006270 -0.344790 0.032680 -1.481058 -5.972647 -9.299372 3.808603 1.179494 39.770929 12.275605 6.263720 -9.441212 1.252185 -5.701542 -6.053075 -14.974650 12.665429 46.712450 -8.065320 13.445320 -8.552820 -30.627309 4.535265 1.146696 -38.290467 20.993356 -9.077988 8.494958 -12.170714 -0.746171 -3.564216 2.856820 0.343520 -0.198150 0.297480 -0.095870 29.597312 5.084992 2.526666 29.316492 -5.903816 -16.431100 -41.828195 46.756339 -14.425842 2.440056 -1.339124 0.031220 -0.051090 -0.108110 -0.208790 
-0.013450 15.744910 -2.527650 -8.148036 -26.817103 0.684100 -16.009115 12.701202 5.902185 17.572571 -5.184304 -49.368824 -2.256548 14.089641 53.188659 0.827809 9.882687 0.800792 0.199950 0.140010 0.379950 17.719080 -8.651271 2.195770 -22.183423 4.613907 -23.605864 13.212745 -11.222893 33.825706 -0.462175 -5.606908 2.166561 0.001690 -0.323060 0.033300 -1.574462 -5.770102 -9.226326 4.463763 0.776462 38.941656 11.375600 5.761032 -9.710820 1.430812 -5.745490 -6.002137 -14.778368 12.547600 46.022972 -8.072400 13.486770 -7.824880 -31.032732 4.532765 1.019410 -38.324453 21.043720 -8.794143 7.640536 -10.222427 -0.599060 -3.599369 2.851914 0.324320 -0.178950 0.276440 -0.093320 29.577556 4.886323 2.338244 29.011051 -5.755890 -16.196547 -40.636298 46.972780 -13.980987 2.421775 -1.344548 0.024320 -0.052670 -0.102460 -0.204650 
